{
    "asset" : {
        "generator" : "Khronos glTF Blender I/O v1.6.16",
        "version" : "2.0"
    },
    "scene" : 0,
    "scenes" : [
        {
            "name" : "Scene",
            "nodes" : [
                1
            ]
        }
    ],
    "nodes" : [
        {
            "mesh" : 0,
            "name" : "TV",
            "rotation" : [
                0.39644116163253784,
                -0.42509374022483826,
                -0.5578110814094543,
                -0.5924327373504639
            ],
            "translation" : [
                -0.021371588110923767,
                0.2770008444786072,
                0.025599364191293716
            ]
        },
        {
            "children" : [
                0
            ],
            "name" : "Old TV"
        }
    ],
    "materials" : [
        {
            "doubleSided" : true,
            "name" : "Material.022",
            "pbrMetallicRoughness" : {
                "baseColorFactor" : [
                    0,
                    0,
                    0,
                    1
                ],
                "metallicFactor" : 0,
                "roughnessFactor" : 0.4000000059604645
            }
        },
        {
            "doubleSided" : true,
            "name" : "tv",
            "pbrMetallicRoughness" : {}
        },
        {
            "doubleSided" : true,
            "name" : "1",
            "pbrMetallicRoughness" : {
                "baseColorFactor" : [
                    0.07051541656255722,
                    0.07051541656255722,
                    0.07051541656255722,
                    1
                ],
                "metallicFactor" : 0,
                "roughnessFactor" : 0.5
            }
        },
        {
            "doubleSided" : true,
            "name" : "t1",
            "pbrMetallicRoughness" : {
                "baseColorTexture" : {
                    "index" : 0
                },
                "metallicFactor" : 0,
                "roughnessFactor" : 0.5
            }
        },
        {
            "doubleSided" : true,
            "name" : "t",
            "pbrMetallicRoughness" : {
                "baseColorFactor" : [
                    0.800000011920929,
                    0.800000011920929,
                    0.800000011920929,
                    1
                ],
                "metallicFactor" : 0,
                "roughnessFactor" : 0.5
            }
        }
    ],
    "meshes" : [
        {
            "name" : "\ufeba\ufee7.001",
            "primitives" : [
                {
                    "attributes" : {
                        "POSITION" : 0,
                        "NORMAL" : 1,
                        "TEXCOORD_0" : 2,
                        "TEXCOORD_1" : 3
                    },
                    "indices" : 4,
                    "material" : 0
                },
                {
                    "attributes" : {
                        "POSITION" : 5,
                        "NORMAL" : 6,
                        "TEXCOORD_0" : 7,
                        "TEXCOORD_1" : 8
                    },
                    "indices" : 9,
                    "material" : 1
                },
                {
                    "attributes" : {
                        "POSITION" : 10,
                        "NORMAL" : 11,
                        "TEXCOORD_0" : 12,
                        "TEXCOORD_1" : 13
                    },
                    "indices" : 14,
                    "material" : 2
                },
                {
                    "attributes" : {
                        "POSITION" : 15,
                        "NORMAL" : 16,
                        "TEXCOORD_0" : 17,
                        "TEXCOORD_1" : 18
                    },
                    "indices" : 19,
                    "material" : 3
                },
                {
                    "attributes" : {
                        "POSITION" : 20,
                        "NORMAL" : 21,
                        "TEXCOORD_0" : 22,
                        "TEXCOORD_1" : 23
                    },
                    "indices" : 24,
                    "material" : 4
                }
            ]
        }
    ],
    "textures" : [
        {
            "sampler" : 0,
            "source" : 0
        }
    ],
    "images" : [
        {
            "mimeType" : "image/png",
            "name" : "t1 Base Color",
            "uri" : "t1%20Base%20Color.png"
        }
    ],
    "accessors" : [
        {
            "bufferView" : 0,
            "componentType" : 5126,
            "count" : 4754,
            "max" : [
                0.4326210916042328,
                0.24791747331619263,
                0.3699238896369934
            ],
            "min" : [
                -0.4329296350479126,
                0.11772460490465164,
                -0.3928212523460388
            ],
            "type" : "VEC3"
        },
        {
            "bufferView" : 1,
            "componentType" : 5126,
            "count" : 4754,
            "type" : "VEC3"
        },
        {
            "bufferView" : 2,
            "componentType" : 5126,
            "count" : 4754,
            "type" : "VEC2"
        },
        {
            "bufferView" : 3,
            "componentType" : 5126,
            "count" : 4754,
            "type" : "VEC2"
        },
        {
            "bufferView" : 4,
            "componentType" : 5123,
            "count" : 17598,
            "type" : "SCALAR"
        },
        {
            "bufferView" : 5,
            "componentType" : 5126,
            "count" : 18,
            "max" : [
                0.3472389578819275,
                0.24126647412776947,
                0.29277974367141724
            ],
            "min" : [
                -0.3391382396221161,
                0.2102532982826233,
                -0.2926141321659088
            ],
            "type" : "VEC3"
        },
        {
            "bufferView" : 6,
            "componentType" : 5126,
            "count" : 18,
            "type" : "VEC3"
        },
        {
            "bufferView" : 7,
            "componentType" : 5126,
            "count" : 18,
            "type" : "VEC2"
        },
        {
            "bufferView" : 8,
            "componentType" : 5126,
            "count" : 18,
            "type" : "VEC2"
        },
        {
            "bufferView" : 9,
            "componentType" : 5123,
            "count" : 36,
            "type" : "SCALAR"
        },
        {
            "bufferView" : 10,
            "componentType" : 5126,
            "count" : 191,
            "max" : [
                -0.2727454602718353,
                0.21508963406085968,
                -0.17085981369018555
            ],
            "min" : [
                -0.30461931228637695,
                0.2071758508682251,
                -0.1918262541294098
            ],
            "type" : "VEC3"
        },
        {
            "bufferView" : 11,
            "componentType" : 5126,
            "count" : 191,
            "type" : "VEC3"
        },
        {
            "bufferView" : 12,
            "componentType" : 5126,
            "count" : 191,
            "type" : "VEC2"
        },
        {
            "bufferView" : 13,
            "componentType" : 5126,
            "count" : 191,
            "type" : "VEC2"
        },
        {
            "bufferView" : 14,
            "componentType" : 5123,
            "count" : 582,
            "type" : "SCALAR"
        },
        {
            "bufferView" : 15,
            "componentType" : 5126,
            "count" : 604,
            "max" : [
                0.4149214029312134,
                0.15551555156707764,
                0.3562852740287781
            ],
            "min" : [
                -0.418062299489975,
                -0.2982039451599121,
                -0.3881773054599762
            ],
            "type" : "VEC3"
        },
        {
            "bufferView" : 16,
            "componentType" : 5126,
            "count" : 604,
            "type" : "VEC3"
        },
        {
            "bufferView" : 17,
            "componentType" : 5126,
            "count" : 604,
            "type" : "VEC2"
        },
        {
            "bufferView" : 18,
            "componentType" : 5126,
            "count" : 604,
            "type" : "VEC2"
        },
        {
            "bufferView" : 19,
            "componentType" : 5123,
            "count" : 2715,
            "type" : "SCALAR"
        },
        {
            "bufferView" : 20,
            "componentType" : 5126,
            "count" : 1113,
            "max" : [
                0.3668651580810547,
                0.24443241953849792,
                0.14295676350593567
            ],
            "min" : [
                -0.12333939969539642,
                0.2140270620584488,
                -0.24712823331356049
            ],
            "type" : "VEC3"
        },
        {
            "bufferView" : 21,
            "componentType" : 5126,
            "count" : 1113,
            "type" : "VEC3"
        },
        {
            "bufferView" : 22,
            "componentType" : 5126,
            "count" : 1113,
            "type" : "VEC2"
        },
        {
            "bufferView" : 23,
            "componentType" : 5126,
            "count" : 1113,
            "type" : "VEC2"
        },
        {
            "bufferView" : 24,
            "componentType" : 5123,
            "count" : 3882,
            "type" : "SCALAR"
        }
    ],
    "bufferViews" : [
        {
            "buffer" : 0,
            "byteLength" : 57048,
            "byteOffset" : 0
        },
        {
            "buffer" : 0,
            "byteLength" : 57048,
            "byteOffset" : 57048
        },
        {
            "buffer" : 0,
            "byteLength" : 38032,
            "byteOffset" : 114096
        },
        {
            "buffer" : 0,
            "byteLength" : 38032,
            "byteOffset" : 152128
        },
        {
            "buffer" : 0,
            "byteLength" : 35196,
            "byteOffset" : 190160
        },
        {
            "buffer" : 0,
            "byteLength" : 216,
            "byteOffset" : 225356
        },
        {
            "buffer" : 0,
            "byteLength" : 216,
            "byteOffset" : 225572
        },
        {
            "buffer" : 0,
            "byteLength" : 144,
            "byteOffset" : 225788
        },
        {
            "buffer" : 0,
            "byteLength" : 144,
            "byteOffset" : 225932
        },
        {
            "buffer" : 0,
            "byteLength" : 72,
            "byteOffset" : 226076
        },
        {
            "buffer" : 0,
            "byteLength" : 2292,
            "byteOffset" : 226148
        },
        {
            "buffer" : 0,
            "byteLength" : 2292,
            "byteOffset" : 228440
        },
        {
            "buffer" : 0,
            "byteLength" : 1528,
            "byteOffset" : 230732
        },
        {
            "buffer" : 0,
            "byteLength" : 1528,
            "byteOffset" : 232260
        },
        {
            "buffer" : 0,
            "byteLength" : 1164,
            "byteOffset" : 233788
        },
        {
            "buffer" : 0,
            "byteLength" : 7248,
            "byteOffset" : 234952
        },
        {
            "buffer" : 0,
            "byteLength" : 7248,
            "byteOffset" : 242200
        },
        {
            "buffer" : 0,
            "byteLength" : 4832,
            "byteOffset" : 249448
        },
        {
            "buffer" : 0,
            "byteLength" : 4832,
            "byteOffset" : 254280
        },
        {
            "buffer" : 0,
            "byteLength" : 5430,
            "byteOffset" : 259112
        },
        {
            "buffer" : 0,
            "byteLength" : 13356,
            "byteOffset" : 264544
        },
        {
            "buffer" : 0,
            "byteLength" : 13356,
            "byteOffset" : 277900
        },
        {
            "buffer" : 0,
            "byteLength" : 8904,
            "byteOffset" : 291256
        },
        {
            "buffer" : 0,
            "byteLength" : 8904,
            "byteOffset" : 300160
        },
        {
            "buffer" : 0,
            "byteLength" : 7764,
            "byteOffset" : 309064
        }
    ],
    "samplers" : [
        {
            "magFilter" : 9729,
            "minFilter" : 9987
        }
    ],
    "buffers" : [
        {
            "byteLength" : 316828,
            "uri" : "Old TV .bin"
        }
    ]
}
